<?xml version="1.0" standalone="no"?><!DOCTYPE svg PUBLIC "-//W3C//DTD SVG 1.1//EN" "http://www.w3.org/Graphics/SVG/1.1/DTD/svg11.dtd"><svg t="1530606745884" class="icon" style="" viewBox="0 0 1024 1024" version="1.1" xmlns="http://www.w3.org/2000/svg" p-id="8881" xmlns:xlink="http://www.w3.org/1999/xlink" width="64" height="64"><defs><style type="text/css"></style></defs><path d="M64.003709 181.806719l109.455901 0 0 109.455901-109.455901 0 0-109.455901Z" p-id="8882" fill="#ffffff"></path><path d="M611.282191 291.26262 282.914488 291.26262 282.914488 181.806719 611.282191 181.806719 647.76715 236.534158Z" p-id="8883" fill="#ffffff"></path><path d="M793.70801 564.900837 282.914488 564.900837 282.914488 455.44596 793.70801 455.44596 830.192969 510.173398Z" p-id="8884" fill="#ffffff"></path><path d="M921.40639 838.540078 282.914488 838.540078 282.914488 729.0852 921.40639 729.0852 957.89135 783.812639Z" p-id="8885" fill="#ffffff"></path><path d="M64.003709 455.44596l109.455901 0 0 109.455901-109.455901 0 0-109.455901Z" p-id="8886" fill="#ffffff"></path><path d="M64.003709 729.0852l109.455901 0 0 109.455901-109.455901 0 0-109.455901Z" p-id="8887" fill="#ffffff"></path></svg>