<?xml version="1.0" standalone="no"?><!DOCTYPE svg PUBLIC "-//W3C//DTD SVG 1.1//EN" "http://www.w3.org/Graphics/SVG/1.1/DTD/svg11.dtd"><svg t="1530601134427" class="icon" style="" viewBox="0 0 1024 1024" version="1.1" xmlns="http://www.w3.org/2000/svg" p-id="2474" xmlns:xlink="http://www.w3.org/1999/xlink" width="64" height="64"><defs><style type="text/css"></style></defs><path d="M938.24 64L515.264 2.496l-422.08 67.84L0 518.08l95.168 422.528 422.976 82.304 421.952-88.768 83.584-426.176L938.24 64zM512 768.768a256 256 0 0 1 0-512 255.36 255.36 0 0 1 246.912 192H622.528A127.488 127.488 0 0 0 511.808 384a128 128 0 0 0 0 256c47.04 0 87.68-25.6 109.952-63.36h137.28c-28.544 110.208-127.808 192.128-247.04 192.128z" fill="#ffffff" p-id="2475"></path></svg>