<?xml version="1.0" standalone="no"?><!DOCTYPE svg PUBLIC "-//W3C//DTD SVG 1.1//EN" "http://www.w3.org/Graphics/SVG/1.1/DTD/svg11.dtd"><svg t="1530606690722" class="icon" style="" viewBox="0 0 1024 1024" version="1.1" xmlns="http://www.w3.org/2000/svg" p-id="7769" xmlns:xlink="http://www.w3.org/1999/xlink" width="64" height="64"><defs><style type="text/css"></style></defs><path d="M512.192 0.704C230.848 0.704 0.704 230.848 0.704 512.192s230.144 511.488 511.488 511.488c281.28 0 511.488-230.208 511.488-511.488C1023.68 230.848 793.472 0.704 512.192 0.704z m0 959.04c-249.344 0-447.552-198.208-447.552-447.552 0-249.344 198.208-447.552 447.552-447.552 249.408 0 447.552 198.208 447.552 447.552 0 249.344-198.144 447.552-447.552 447.552z" fill="#ffffff" p-id="7770"></path><path d="M576.896 598.848h173.888V526.08H576.896v-51.776c0-24.064 2.24-41.792 6.72-53.184 1.728-4.544 2.624-8.896 2.624-12.992s-6.208-6.08-18.816-6.08h-79.232V716.8H401.6V545.728c0-23.552 2.24-41.088 6.72-52.352 2.304-5.44 3.392-10.112 3.392-14.016 0-3.84-5.824-5.76-17.6-5.76h-77.824v243.2h-100.16v75.008H802.88V716.8H576.896V598.848z m-14.208-382.784c2.624-2.752 6.528-5.696 11.52-8.896 5.056-3.136 7.424-6.784 7.424-10.88 0-3.2-1.728-5.696-5.376-7.488-3.648-1.856-36.608-10.688-98.88-26.624-47.36 123.584-145.728 211.456-295.04 263.744 17.6 14.528 38.72 37.44 63.552 68.8 123.648-61.376 213.632-132.416 270.08-213.312 58.688 87.232 146.176 157.888 262.656 211.968 23.36-36.8 44.48-65.856 63.488-87.232-61.376-14.976-116.224-39.168-164.992-72.512-48.896-33.472-86.976-72.64-114.432-117.568z" fill="#ffffff" p-id="7771"></path></svg>