<?xml version="1.0" standalone="no"?><!DOCTYPE svg PUBLIC "-//W3C//DTD SVG 1.1//EN" "http://www.w3.org/Graphics/SVG/1.1/DTD/svg11.dtd"><svg t="1530606822956" class="icon" style="" viewBox="0 0 1024 1024" version="1.1" xmlns="http://www.w3.org/2000/svg" p-id="11384" xmlns:xlink="http://www.w3.org/1999/xlink" width="64" height="64"><defs><style type="text/css"></style></defs><path d="M768 64a32 32 0 0 1 32 31.68V192h64c17.664 0 32 14.208 32 32v32H128V127.936C128 92.608 156.736 64 191.68 64H768z m-32 64H223.776A31.904 31.904 0 0 0 192 160c0 17.792 14.24 32 31.776 32H736v-64zM128 256h768v640.288c0 35.2-28.704 63.712-64.16 63.712H192.16A63.904 63.904 0 0 1 128 896.288V256z m64 0v608.256A32 32 0 0 0 223.744 896h576.512A32 32 0 0 0 832 864.256V256H192z m475.52 222.816H317.952c-16.032 0-29.056-14.08-29.056-31.424s13.024-31.36 29.056-31.392h349.504c16.032 0 29.056 14.08 29.056 31.392 0 17.344-13.024 31.424-29.056 31.424z m-153.216 128h-194.24a31.264 31.264 0 0 1-31.136-31.424c0-17.344 13.952-31.392 31.136-31.392h194.208c17.184 0 31.104 14.08 31.104 31.392a31.264 31.264 0 0 1-31.104 31.424h0.032z" fill="#ffffff" p-id="11385"></path></svg>