<?xml version="1.0" standalone="no"?><!DOCTYPE svg PUBLIC "-//W3C//DTD SVG 1.1//EN" "http://www.w3.org/Graphics/SVG/1.1/DTD/svg11.dtd"><svg t="1530606833968" class="icon" style="" viewBox="0 0 1024 1024" version="1.1" xmlns="http://www.w3.org/2000/svg" p-id="11609" xmlns:xlink="http://www.w3.org/1999/xlink" width="64" height="64"><defs><style type="text/css"></style></defs><path d="M883.2 294.4H216.832A88.9344 88.9344 0 0 1 128 205.568v-1.536A88.9344 88.9344 0 0 1 216.832 115.2H883.2a12.8 12.8 0 1 1 0 25.6H216.832A63.296 63.296 0 0 0 153.6 204.032v1.5232A63.3088 63.3088 0 0 0 216.832 268.8H883.2a12.8 12.8 0 1 1 0 25.6z" fill="#ffffff" p-id="11610"></path><path d="M217.6 294.4c-49.408 0-89.6-40.2048-89.6-89.6s40.192-89.6 89.6-89.6 89.6 40.2048 89.6 89.6-40.192 89.6-89.6 89.6z m0-153.6c-35.2896 0-64 28.7104-64 64s28.7104 64 64 64 64-28.7104 64-64-28.7104-64-64-64zM665.6 166.4h192v25.6H665.6zM614.4 166.4h25.6v25.6h-25.6z" fill="#ffffff" p-id="11611"></path><path d="M294.4 166.4h294.4v25.6H294.4zM294.4 217.6h563.2v25.6H294.4zM204.8 192h25.6v25.6H204.8z" fill="#ffffff" p-id="11612"></path><path d="M844.8 128h25.6v153.6h-25.6z" fill="#ffffff" p-id="11613"></path><path d="M883.2 499.2H216.832A88.9344 88.9344 0 0 1 128 410.368v-1.536A88.9344 88.9344 0 0 1 216.832 320H883.2a12.8 12.8 0 1 1 0 25.6H216.832A63.296 63.296 0 0 0 153.6 408.832v1.5232A63.3088 63.3088 0 0 0 216.832 473.6H883.2a12.8 12.8 0 1 1 0 25.6z" fill="#ffffff" p-id="11614"></path><path d="M217.6 499.2c-49.408 0-89.6-40.2048-89.6-89.6s40.192-89.6 89.6-89.6 89.6 40.2048 89.6 89.6-40.192 89.6-89.6 89.6z m0-153.6c-35.2896 0-64 28.7104-64 64s28.7104 64 64 64 64-28.7104 64-64-28.7104-64-64-64zM448 371.2h409.6v25.6H448zM396.8 371.2h25.6v25.6h-25.6z" fill="#ffffff" p-id="11615"></path><path d="M294.4 371.2h76.8v25.6h-76.8zM294.4 422.4h563.2v25.6H294.4zM204.8 396.8h25.6v25.6H204.8z" fill="#ffffff" p-id="11616"></path><path d="M844.8 332.8h25.6v153.6h-25.6z" fill="#ffffff" p-id="11617"></path><path d="M883.2 704H216.832A88.9344 88.9344 0 0 1 128 615.168v-1.536A88.9344 88.9344 0 0 1 216.832 524.8H883.2a12.8 12.8 0 1 1 0 25.6H216.832A63.296 63.296 0 0 0 153.6 613.632v1.5232A63.3088 63.3088 0 0 0 216.832 678.4H883.2a12.8 12.8 0 1 1 0 25.6z" fill="#ffffff" p-id="11618"></path><path d="M217.6 704c-49.408 0-89.6-40.2048-89.6-89.6s40.192-89.6 89.6-89.6 89.6 40.2048 89.6 89.6-40.192 89.6-89.6 89.6z m0-153.6c-35.2896 0-64 28.7104-64 64s28.7104 64 64 64 64-28.7104 64-64-28.7104-64-64-64z" fill="#ffffff" p-id="11619"></path><path d="M294.4 576h563.2v25.6H294.4zM704 627.2h153.6v25.6H704zM652.8 627.2h25.6v25.6h-25.6zM294.4 627.2h332.8v25.6H294.4zM204.8 601.6h25.6v25.6H204.8z" fill="#ffffff" p-id="11620"></path><path d="M844.8 537.6h25.6v153.6h-25.6z" fill="#ffffff" p-id="11621"></path></svg>