<?xml version="1.0" standalone="no"?><!DOCTYPE svg PUBLIC "-//W3C//DTD SVG 1.1//EN" "http://www.w3.org/Graphics/SVG/1.1/DTD/svg11.dtd"><svg t="1530606500517" class="icon" style="" viewBox="0 0 1024 1024" version="1.1" xmlns="http://www.w3.org/2000/svg" p-id="6152" xmlns:xlink="http://www.w3.org/1999/xlink" width="64" height="64"><defs><style type="text/css"></style></defs><path d="M511.706311 64.021106C264.433578 64.021106 63.981197 264.47451 63.981197 511.745197c0 247.272733 200.452381 447.725114 447.725114 447.725114s447.725114-200.452381 447.725114-447.725114C959.431425 264.47451 758.979044 64.021106 511.706311 64.021106zM803.797809 608.559173c-13.087063 91.171466-106.270349 91.077322-106.270349 91.077322L329.223187 699.636494c0 0-100.126418-0.966001-102.236476-96.803743 0-95.971795 94.13496-114.260324 94.13496-114.260324s-7.483438-47.907103 34.893718-74.080206c47.360657-27.421536 82.266655 6.151094 82.266655 6.151094s35.264155-107.71628 151.176095-95.877651c135.232984 16.827247 124.273375 164.43098 124.273375 164.43098S810.03179 508.84924 803.797809 608.559173z" p-id="6153" fill="#ffffff"></path></svg>