<?xml version="1.0" standalone="no"?><!DOCTYPE svg PUBLIC "-//W3C//DTD SVG 1.1//EN" "http://www.w3.org/Graphics/SVG/1.1/DTD/svg11.dtd"><svg t="1530606520877" class="icon" style="" viewBox="0 0 1024 1024" version="1.1" xmlns="http://www.w3.org/2000/svg" p-id="6329" xmlns:xlink="http://www.w3.org/1999/xlink" width="64" height="64"><defs><style type="text/css"></style></defs><path d="M815.84 842.752H262.88a263.424 263.424 0 0 1 0-526.784c5.792 0 11.52 0.192 17.28 0.608 50.56-91.52 146.336-152.512 256.384-152.64 176.16 0 285.312 118.752 283.328 257.952 110.048 5.6 204.672 100.448 204.672 212a208.96 208.96 0 0 1-208.704 208.864zM256.864 360.672c-111.712 0.192-210.496 107.104-210.496 218.848 0 3.488 0.064 6.944 0.256 10.368 5.408 108.128 113.312 205.824 222.112 205.824h542.56c77.344 0 159.328-71.936 165.792-148.992a151.36 151.36 0 0 0 0.512-12.576c0-81.568-76.48-160.064-158.016-160.064h-2.304a2.304 2.304 0 0 0-2.016 1.824c-30.592 123.072-150.912 167.36-237.184 162.56 139.136-35.36 202.624-134.72 194.368-236.416-8.128-100.032-89.728-191.968-225.984-191.008-93.248 0.352-189.504 53.696-226.112 133.184-5.28 11.904-15.776 19.136-28 19.136a26.112 26.112 0 0 1-5.504-0.544 186.944 186.944 0 0 0-28.928-2.144H256.768h0.096z" p-id="6330" fill="#ffffff"></path><path d="M162.368 480.096h46.4v46.4h-46.4zM162.368 558.656h46.4v46.4h-46.4zM162.368 637.184h46.4v46.432h-46.4zM244.448 480.096h297.696v46.4H244.448zM244.448 558.656h297.696v46.4H244.448zM244.448 637.184h297.696v46.432H244.448z" p-id="6331" fill="#ffffff"></path></svg>