<?xml version="1.0" standalone="no"?><!DOCTYPE svg PUBLIC "-//W3C//DTD SVG 1.1//EN" "http://www.w3.org/Graphics/SVG/1.1/DTD/svg11.dtd"><svg t="1530517188244" class="icon" style="" viewBox="0 0 1024 1024" version="1.1" xmlns="http://www.w3.org/2000/svg" p-id="2975" xmlns:xlink="http://www.w3.org/1999/xlink" width="64" height="64"><defs><style type="text/css"></style></defs><path d="M380.199 468.954h-218.453c-48.182 0-87.381-39.199-87.381-87.381v-218.453c0-48.182 39.199-87.381 87.381-87.381h218.453c48.182 0 87.381 39.199 87.381 87.381v218.453c0 48.182-39.199 87.381-87.381 87.381zM161.746 148.555c-8.031 0-14.563 6.533-14.563 14.563v218.453c0 8.031 6.533 14.563 14.563 14.563h218.453c8.031 0 14.563-6.533 14.563-14.563v-218.453c0-8.031-6.533-14.563-14.563-14.563h-218.453z" fill="" p-id="2976"></path><path d="M380.199 948.262h-218.453c-48.182 0-87.381-39.199-87.381-87.381v-218.453c0-48.182 39.199-87.381 87.381-87.381h218.453c48.182 0 87.381 39.199 87.381 87.381v218.453c0 48.182-39.199 87.381-87.381 87.381zM161.746 627.865c-8.031 0-14.563 6.533-14.563 14.563v218.453c0 8.031 6.533 14.563 14.563 14.563h218.453c8.031 0 14.563-6.533 14.563-14.563v-218.453c0-8.031-6.533-14.563-14.563-14.563h-218.453z" fill="" p-id="2977"></path><path d="M911.77 234.48h-320.398c-20.108 0-36.409-16.301-36.409-36.409s16.301-36.409 36.409-36.409h320.398c20.108 0 36.409 16.301 36.409 36.409s-16.301 36.409-36.409 36.409z" fill="" p-id="2978"></path><path d="M911.77 383.028h-320.398c-20.108 0-36.409-16.301-36.409-36.409s16.301-36.409 36.409-36.409h320.398c20.108 0 36.409 16.301 36.409 36.409s-16.301 36.409-36.409 36.409z" fill="" p-id="2979"></path><path d="M911.77 713.79h-320.398c-20.108 0-36.409-16.301-36.409-36.409s16.301-36.409 36.409-36.409h320.398c20.108 0 36.409 16.301 36.409 36.409s-16.301 36.409-36.409 36.409z" fill="" p-id="2980"></path><path d="M911.77 862.338h-320.398c-20.108 0-36.409-16.301-36.409-36.409s16.301-36.409 36.409-36.409h320.398c20.108 0 36.409 16.301 36.409 36.409s-16.301 36.409-36.409 36.409z" fill="" p-id="2981"></path></svg>